<svg xmlns="http://www.w3.org/2000/svg" viewBox="0 0 200 500" fill="none">
  <ellipse cx="100" cy="42" rx="26" ry="32" fill="#C4A882" opacity="0.3"/>
  <rect x="91" y="70" width="18" height="22" rx="4" fill="#C4A882" opacity="0.3"/>
  <!-- Male apple: broader midsection -->
  <path d="M58 92 L142 92 L150 170 L145 250 L55 250 L50 170 Z" fill="#B8A88E" opacity="0.2" stroke="#8E7E6E" stroke-width="1.5"/>
  <path d="M58 92 L35 98 L25 205 L33 205 L41 108 L58 102" fill="#C4A882" opacity="0.2"/>
  <path d="M142 92 L165 98 L175 205 L167 205 L159 108 L142 102" fill="#C4A882" opacity="0.2"/>
  <path d="M62 250 L56 420 L50 460 L76 460 L74 420 L80 250" fill="#B8A88E" opacity="0.2" stroke="#8E7E6E" stroke-width="1"/>
  <path d="M120 250 L117 420 L124 460 L150 460 L144 420 L138 250" fill="#B8A88E" opacity="0.2" stroke="#8E7E6E" stroke-width="1"/>
  <line x1="46" y1="170" x2="154" y2="170" stroke="#6C3CE1" stroke-width="0.5" stroke-dasharray="4 4" opacity="0.4"/>
  <line x1="52" y1="240" x2="148" y2="240" stroke="#6C3CE1" stroke-width="0.5" stroke-dasharray="4 4" opacity="0.4"/>
</svg>
