<svg xmlns="http://www.w3.org/2000/svg" viewBox="0 0 200 500" fill="none">
  <ellipse cx="100" cy="45" rx="28" ry="35" fill="#D4A574" opacity="0.3"/>
  <rect x="90" y="75" width="20" height="20" rx="5" fill="#D4A574" opacity="0.3"/>
  <!-- Hourglass torso: wide shoulders, narrow waist, wide hips -->
  <path d="M60 95 L140 95 L125 170 L140 250 L60 250 L75 170 Z" fill="#C4B5A0" opacity="0.2" stroke="#9E8E7E" stroke-width="1.5"/>
  <path d="M60 95 L40 100 L30 200 L37 200 L45 110 L60 105" fill="#D4A574" opacity="0.2"/>
  <path d="M140 95 L160 100 L170 200 L163 200 L155 110 L140 105" fill="#D4A574" opacity="0.2"/>
  <path d="M65 250 L58 420 L51 460 L74 460 L72 420 L80 250" fill="#C4B5A0" opacity="0.2" stroke="#9E8E7E" stroke-width="1"/>
  <path d="M120 250 L118 420 L125 460 L148 460 L142 420 L135 250" fill="#C4B5A0" opacity="0.2" stroke="#9E8E7E" stroke-width="1"/>
  <line x1="55" y1="130" x2="145" y2="130" stroke="#6C3CE1" stroke-width="0.5" stroke-dasharray="4 4" opacity="0.4"/>
  <line x1="70" y1="170" x2="130" y2="170" stroke="#6C3CE1" stroke-width="0.5" stroke-dasharray="4 4" opacity="0.4"/>
  <line x1="55" y1="240" x2="145" y2="240" stroke="#6C3CE1" stroke-width="0.5" stroke-dasharray="4 4" opacity="0.4"/>
</svg>
