<svg xmlns="http://www.w3.org/2000/svg" viewBox="0 0 200 500" fill="none">
  <ellipse cx="100" cy="42" rx="26" ry="32" fill="#C4A882" opacity="0.3"/>
  <rect x="91" y="70" width="18" height="22" rx="4" fill="#C4A882" opacity="0.3"/>
  <!-- Male V-shape: very broad shoulders, narrow waist -->
  <path d="M48 92 L152 92 L135 250 L65 250 Z" fill="#B8A88E" opacity="0.2" stroke="#8E7E6E" stroke-width="1.5"/>
  <path d="M48 92 L25 98 L15 205 L23 205 L33 108 L48 102" fill="#C4A882" opacity="0.2"/>
  <path d="M152 92 L175 98 L185 205 L177 205 L167 108 L152 102" fill="#C4A882" opacity="0.2"/>
  <path d="M70 250 L64 420 L58 460 L84 460 L82 420 L86 250" fill="#B8A88E" opacity="0.2" stroke="#8E7E6E" stroke-width="1"/>
  <path d="M114 250 L110 420 L117 460 L143 460 L137 420 L130 250" fill="#B8A88E" opacity="0.2" stroke="#8E7E6E" stroke-width="1"/>
  <line x1="42" y1="130" x2="158" y2="130" stroke="#6C3CE1" stroke-width="0.5" stroke-dasharray="4 4" opacity="0.4"/>
  <line x1="62" y1="240" x2="138" y2="240" stroke="#6C3CE1" stroke-width="0.5" stroke-dasharray="4 4" opacity="0.4"/>
</svg>
